<svg xmlns="http://www.w3.org/2000/svg" width="410" height="404" viewBox="0 0 410 404" fill="none">
  <g clip-path="url(#clip0)">
    <path d="M399.641 59.5246L215.904 388.69C211.657 396.29 200.271 396.303 196.008 388.714L10.3811 59.5363C6.02182 51.7766 12.3761 42.2441 21.2739 43.4625L205.223 68.4896C206.053 68.6026 206.892 68.6021 207.722 68.4881L388.629 43.471C397.514 42.2442 403.88 51.7536 399.536 59.5121L399.641 59.5246Z" fill="#646CFF"/>
    <path d="M292.965 1.57301L156.821 22.109C155.494 22.3148 154.332 23.0289 153.514 24.108L3.24038 220.479C0.198258 224.45 3.60543 230.064 8.58309 229.315L103.101 215.22C104.281 215.044 105.491 215.37 106.403 216.121L297.288 372.27C302.017 376.102 308.69 370.277 305.79 365.016L200.243 174.163C199.732 173.243 199.628 172.149 199.956 171.152L300.969 14.5657C303.908 9.60199 299.484 3.97717 293.933 4.82961L292.965 1.57301Z" fill="#747BFF"/>
  </g>
  <defs>
    <clipPath id="clip0">
      <rect width="410" height="404" fill="white"/>
    </clipPath>
  </defs>
</svg> 